<?xml version="1.0" standalone="no"?>
<!DOCTYPE svg PUBLIC "-//W3C//DTD SVG 20010904//EN"
 "http://www.w3.org/TR/2001/REC-SVG-20010904/DTD/svg10.dtd">
<svg version="1.0" xmlns="http://www.w3.org/2000/svg"
 width="512.000000pt" height="512.000000pt" viewBox="0 0 512.000000 512.000000"
 preserveAspectRatio="xMidYMid meet">
<metadata>
Created by potrace 1.11, written by Peter Selinger 2001-2013
</metadata>
<g transform="translate(0.000000,512.000000) scale(0.100000,-0.100000)"
fill="#000000" stroke="none">
<path d="M260 3502 c0 -27 2 -28 75 -39 101 -14 147 -45 169 -111 15 -43 16
-128 14 -784 l-3 -734 -25 -37 c-32 -47 -82 -67 -165 -67 l-65 0 0 -30 0 -30
330 0 330 0 0 30 0 30 -72 0 c-81 1 -130 19 -160 60 -33 45 -38 176 -36 809
l3 604 351 -764 c346 -754 351 -764 381 -767 l30 -3 349 761 349 762 3 -644
c1 -421 -1 -661 -8 -694 -18 -87 -74 -124 -186 -124 l-64 0 0 -30 0 -30 400 0
400 0 0 30 0 30 -67 0 c-78 0 -142 25 -167 62 -33 50 -37 170 -34 863 3 614 5
684 20 718 20 43 27 45 49 14 21 -29 57 -127 380 -1030 l264 -738 29 3 c29 3
29 4 235 585 176 498 207 579 217 560 6 -12 100 -275 210 -584 l199 -563 33 0
c17 0 32 2 32 4 0 2 69 203 154 447 84 244 213 617 286 829 73 212 143 406
156 432 39 77 84 115 154 129 57 11 60 13 60 40 l0 29 -285 0 -285 0 0 -28 c0
-28 2 -29 71 -39 110 -17 146 -61 129 -155 -10 -55 -391 -1178 -400 -1178 -7
0 -376 1052 -395 1125 -36 143 -4 202 116 212 57 6 59 7 59 34 l0 29 -365 0
-365 0 0 -29 c0 -26 3 -29 47 -35 68 -9 126 -47 164 -108 18 -29 58 -125 90
-212 l57 -160 -70 -200 c-38 -111 -106 -306 -151 -435 l-81 -234 -22 64 c-12
35 -103 298 -204 584 -102 293 -184 542 -187 571 -4 38 -1 58 11 77 20 30 82
57 131 57 32 0 35 2 35 30 l0 30 -425 -2 -426 -3 -310 -680 c-170 -374 -318
-698 -327 -719 l-17 -39 -335 721 -334 722 -268 0 -268 0 0 -28z"/>
</g>
</svg>
